<?xml version="1.0" encoding="utf-8"?>
<!-- Generator: Adobe Illustrator 20.1.0, SVG Export Plug-In . SVG Version: 6.00 Build 0)  -->
<svg version="1.1" id="Layer_1" xmlns="http://www.w3.org/2000/svg" xmlns:xlink="http://www.w3.org/1999/xlink" x="0px" y="0px"
	 viewBox="0 0 141.7 141.7" style="enable-background:new 0 0 141.7 141.7;" xml:space="preserve">
<style type="text/css">
	.st0{fill:#414042;}
	.st1{fill:#939598;}
	.st2{fill:#FFFFFF;}
	.st3{fill:none;stroke:#FFFFFF;stroke-width:1.7417;stroke-linecap:round;stroke-miterlimit:10;}
</style>
<g transform="translate(0 -5.7)">
	<g>
		<g>
			<circle class="st0" cx="70.4" cy="76.1" r="47.4"/>
		</g>
		<path d="M109.4,78.2c-2.3-2.5-4-5.6-4.6-9c-0.7-3.5-0.5-6.9,0.6-10.2c-2.2-4.6-5.3-8.6-9.2-11.9c-3.3,0.2-6.8-0.4-10-2
			s-5.8-4-7.7-6.7c-5.1-1-10.2-1.1-15-0.2c-1.9,2.8-4.6,5.1-7.8,6.6s-6.7,2.1-10.1,1.7c-3.8,3.1-7.1,7.1-9.5,11.6
			c0.9,3.2,1.1,6.7,0.4,10.2c-0.9,3.5-2.6,6.5-5,8.9c0.1,5.1,1.1,10.1,3.1,14.6c3.1,1.2,5.9,3.2,8.2,6.2c2.2,2.8,3.5,6.2,4,9.4
			c4,3,8.4,5.3,13.5,6.7c2.9-1.6,6.3-2.6,9.9-2.6s6.9,1,9.9,2.8c4.8-1.1,9.5-3.3,13.6-6.4c0.6-3.3,1.9-6.5,4.2-9.3
			c2.3-2.8,5.2-4.7,8.4-5.9c1-2.2,1.9-4.6,2.5-7.1C109.1,83.4,109.3,80.7,109.4,78.2z"/>
		
			<ellipse transform="matrix(0.2359 -0.9718 0.9718 0.2359 -20.1946 126.5421)" class="st1" cx="70.4" cy="76.1" rx="26.7" ry="26.7"/>
		<path class="st2" d="M71.5,28.5c-0.4,0-0.9,0-1.1,0c-0.3,0-0.9,0-1.1,0v31h2.5v-31H71.5z"/>
	</g>
	<g>
		<line class="st3" x1="126.3" y1="76.1" x2="132.6" y2="76.1"/>
		<line class="st3" x1="8" y1="76.1" x2="14.6" y2="76.1"/>
		<line class="st3" x1="118.7" y1="48.2" x2="124.3" y2="44.9"/>
		<line class="st3" x1="16.4" y1="107.3" x2="22" y2="104"/>
		<line class="st3" x1="98.3" y1="27.8" x2="101.5" y2="22.2"/>
		<line class="st3" x1="39.2" y1="130.1" x2="42.4" y2="124.5"/>
		<line class="st3" x1="42.4" y1="27.8" x2="39.2" y2="22.2"/>
		<line class="st3" x1="101.5" y1="130.1" x2="98.3" y2="124.5"/>
		<line class="st3" x1="22" y1="48.2" x2="16.4" y2="44.9"/>
		<line class="st3" x1="124.3" y1="107.3" x2="118.7" y2="104"/>
		<circle class="st2" cx="70.4" cy="15.7" r="2.8"/>
	</g>
</g>
</svg>
